<svg width="54" height="54" viewBox="0 0 54 54" fill="none" xmlns="http://www.w3.org/2000/svg">
<path d="M50.8649 12.8715L29.7168 0.76185C28.8456 0.262753 27.8574 -7.85672e-08 26.8515 -7.57301e-08C25.8455 -7.2893e-08 24.8573 0.262753 23.9861 0.76185L2.86387 12.8715C1.9936 13.3704 1.27088 14.0877 0.768209 14.9513C0.265541 15.8149 0.000610511 16.7945 5.01789e-08 17.7919L1.18491e-07 42.0131C0.00130721 43.0097 0.266568 43.9886 0.769201 44.8514C1.27183 45.7143 1.99418 46.4309 2.86387 46.9295L13.265 52.8921L13.3544 52.9474C13.7526 53.1175 14.1695 53.2406 14.5966 53.3142L14.6304 53.3142L14.7983 53.3418C15.7839 53.4994 16.7943 53.3746 17.7108 52.9819L17.8192 52.9336C17.9106 52.8931 17.9652 52.8665 17.9821 52.8576C20.6502 51.5393 23.5986 47.5162 25.2859 37.0602C25.7548 37.2921 26.2714 37.4133 26.7953 37.4142L26.851 37.4142C27.345 37.4052 27.8313 37.2909 28.2769 37.0789L28.3892 37.0217C30.0785 47.5064 33.0269 51.5403 35.6999 52.8586C35.7168 52.8586 35.7725 52.8941 35.8629 52.9345L35.9712 52.9829C36.8884 53.3755 37.8995 53.5004 38.8858 53.3428L39.0517 53.3152L39.0855 53.3152C39.5535 53.2337 40.0088 53.0922 40.4399 52.8941L40.5333 52.8389L41.4118 52.3459L41.4456 52.3202L50.851 46.9345C51.7212 46.4353 52.4438 45.7179 52.9463 44.8541C53.4488 43.9902 53.7135 43.0105 53.7139 42.0131L53.7139 17.7938C53.7151 16.7976 53.4526 15.8186 52.9526 14.9547C52.4526 14.0908 51.7327 13.3724 50.8649 12.8715ZM35.37 29.6629L35.37 29.6875L34.1259 35.6482C34.1058 35.7565 34.0563 35.8574 33.9827 35.9398C33.909 36.0223 33.8141 36.0832 33.7081 36.116C33.6021 36.1487 33.4891 36.1522 33.3813 36.1259C33.2735 36.0995 33.175 36.0445 33.0964 35.9667L33.0775 35.9538L29.5996 33.5439C28.8895 34.2935 27.9142 34.7406 26.8788 34.7913L26.8212 34.7913C25.788 34.7572 24.8088 34.3249 24.0914 33.5863L20.6234 35.9982C20.6138 36.0088 20.6024 36.0174 20.5896 36.0239C20.5094 36.0923 20.4123 36.1383 20.3082 36.1571C20.2042 36.176 20.0969 36.1671 19.9975 36.1312C19.8981 36.0954 19.81 36.034 19.7424 35.9532C19.6748 35.8725 19.6301 35.7754 19.6128 35.6718L18.3737 29.7003L18.3737 29.6264C18.343 29.4559 18.3529 29.2806 18.4026 29.1145C18.4523 28.9485 18.5404 28.7962 18.6598 28.6699L21.0447 26.4079L21.2167 26.2462C21.9808 18.9653 23.8887 15.8069 25.8185 13.6909C26.1733 13.2965 26.527 12.9474 26.8798 12.6062C27.2425 12.9602 27.6141 13.331 27.9838 13.7412C29.8937 15.8602 31.7788 19.0254 32.537 26.2442L32.6095 26.3113L35.0828 28.6551C35.2076 28.7878 35.2981 28.9486 35.3465 29.1236C35.395 29.2986 35.4 29.4826 35.3611 29.6599L35.37 29.6629ZM26.8788 19.3567C27.3802 19.3587 27.8603 19.5579 28.2139 19.9108C28.5674 20.2637 28.7653 20.7413 28.7644 21.2388C28.7634 21.7364 28.5635 22.2132 28.2086 22.5647C27.8537 22.9161 27.3728 23.1135 26.8713 23.1135C26.3699 23.1135 25.889 22.9161 25.5341 22.5647C25.1792 22.2132 24.9793 21.7364 24.9783 21.2388C24.9773 20.7413 25.1753 20.2637 25.5288 19.9108C25.8823 19.5579 26.3625 19.3587 26.8639 19.3567L26.8788 19.3567Z" fill="#489DDA"/>
</svg>
